<svg xmlns="http://www.w3.org/2000/svg" width="217" height="82" fill="none"><path fill="#757575" d="M0 0h216.021v81.47H0z"/><path fill="#fff" d="M43.156 42.736c-.279.939-.719 1.723-1.32 2.354a5.653 5.653 0 01-2.134 1.408c-.821.308-1.723.462-2.706.462-1.437 0-2.684-.3-3.74-.902-1.041-.601-1.848-1.46-2.42-2.574-.557-1.115-.836-2.45-.836-4.004 0-1.555.279-2.89.836-4.004.572-1.115 1.379-1.973 2.42-2.574 1.056-.601 2.288-.902 3.696-.902.997 0 1.9.14 2.706.418a5.074 5.074 0 012.046 1.232c.572.557.99 1.261 1.254 2.112l-2.75 1.166c-.25-.88-.63-1.503-1.144-1.87-.513-.381-1.173-.572-1.98-.572-.792 0-1.489.19-2.09.572-.587.381-1.041.946-1.364 1.694-.323.733-.484 1.643-.484 2.728 0 1.07.147 1.98.44 2.728.308.748.755 1.313 1.342 1.694.587.381 1.305.572 2.156.572.792 0 1.474-.213 2.046-.638.587-.425.997-1.07 1.232-1.936l2.794.836zM50.452 35.52c1.114 0 2.09.227 2.926.682a4.806 4.806 0 011.98 1.958c.484.85.726 1.877.726 3.08 0 1.188-.242 2.215-.726 3.08a4.806 4.806 0 01-1.98 1.958c-.836.455-1.812.682-2.926.682-1.1 0-2.076-.227-2.926-.682a4.946 4.946 0 01-2.002-1.958c-.47-.865-.704-1.892-.704-3.08 0-1.203.234-2.23.704-3.08a4.946 4.946 0 012.002-1.958c.85-.455 1.826-.682 2.926-.682zm0 2.244c-.558 0-1.034.132-1.43.396-.382.25-.675.63-.88 1.144-.206.513-.308 1.159-.308 1.936 0 .777.102 1.423.308 1.936.205.513.498.902.88 1.166.396.25.872.374 1.43.374.542 0 1.004-.125 1.386-.374.396-.264.696-.653.902-1.166.205-.513.308-1.159.308-1.936 0-.777-.103-1.423-.308-1.936-.206-.513-.506-.895-.902-1.144-.382-.264-.844-.396-1.386-.396zM58.605 46.74v-11h2.707l.11 1.98c.366-.733.865-1.283 1.495-1.65a4.244 4.244 0 012.135-.55c.791 0 1.503.183 2.133.55.646.367 1.13.91 1.453 1.628.234-.484.55-.887.945-1.21a4.15 4.15 0 011.32-.726 4.634 4.634 0 011.474-.242c.72 0 1.372.147 1.959.44a3.354 3.354 0 011.43 1.32c.352.587.527 1.335.527 2.244v7.216H73.28v-6.622c0-.807-.175-1.379-.528-1.716-.352-.337-.806-.506-1.364-.506-.44 0-.85.11-1.231.33-.367.22-.66.55-.88.99-.206.425-.308.96-.308 1.606v5.918h-3.014v-6.622c0-.807-.184-1.379-.55-1.716-.352-.337-.807-.506-1.364-.506-.382 0-.763.103-1.145.308-.366.205-.674.528-.924.968-.234.44-.351 1.02-.351 1.738v5.83h-3.014zM79.402 51.36V35.74h2.706l.198 3.498-.374-.396a4.502 4.502 0 01.726-1.716 3.81 3.81 0 011.386-1.166 3.953 3.953 0 011.87-.44c.895 0 1.694.227 2.398.682.704.455 1.254 1.107 1.65 1.958.411.836.616 1.855.616 3.058 0 1.203-.205 2.237-.616 3.102-.41.85-.975 1.503-1.694 1.958-.704.455-1.51.682-2.42.682-.968 0-1.774-.271-2.42-.814A4.136 4.136 0 0182.13 44.1l.286-.462v7.722h-3.014zm5.566-6.71c.807 0 1.438-.286 1.892-.858.47-.587.704-1.437.704-2.552s-.227-1.958-.682-2.53c-.44-.587-1.063-.88-1.87-.88-.513 0-.968.14-1.364.418-.381.264-.682.653-.902 1.166-.22.499-.33 1.107-.33 1.826 0 .704.103 1.313.308 1.826.206.513.499.91.88 1.188.396.264.851.396 1.364.396zM99.4 39.722c0-.63-.182-1.122-.55-1.474-.351-.352-.82-.528-1.407-.528-.543 0-1.02.14-1.43.418-.41.279-.711.74-.902 1.386l-2.574-.792c.25-.968.792-1.745 1.628-2.332.85-.587 1.987-.88 3.41-.88.968 0 1.811.154 2.53.462.719.293 1.276.74 1.672 1.342.411.601.616 1.357.616 2.266v4.466c0 .557.264.836.792.836.249 0 .484-.037.704-.11l-.176 1.87c-.381.19-.858.286-1.43.286-.513 0-.975-.088-1.386-.264a2.152 2.152 0 01-.968-.792c-.235-.367-.352-.821-.352-1.364v-.088l.528-.088a2.531 2.531 0 01-.726 1.43c-.396.381-.88.675-1.452.88a4.989 4.989 0 01-1.738.308c-.748 0-1.393-.11-1.936-.33-.543-.235-.96-.572-1.254-1.012-.293-.44-.44-.983-.44-1.628 0-.821.264-1.489.792-2.002.528-.528 1.283-.887 2.266-1.078l4.136-.836-.022 1.87-2.64.528c-.499.103-.88.242-1.144.418-.25.161-.374.433-.374.814 0 .367.132.645.396.836.279.19.609.286.99.286.308 0 .609-.037.902-.11.293-.073.557-.19.792-.352.235-.161.418-.381.55-.66.132-.279.198-.616.198-1.012v-2.97zM105.764 46.74v-11h2.706l.176 3.3-.374-.352c.176-.719.454-1.313.836-1.782.381-.47.843-.814 1.386-1.034a4.656 4.656 0 011.826-.352c.762 0 1.437.147 2.024.44.601.293 1.07.74 1.408 1.342.352.587.528 1.327.528 2.222v7.216h-3.014v-6.358c0-.939-.184-1.584-.55-1.936-.367-.367-.844-.55-1.43-.55-.411 0-.814.103-1.21.308-.382.19-.697.506-.946.946-.235.44-.352 1.027-.352 1.76v5.83h-3.014zM129.317 35.74l-4.444 11.682c-.352.997-.748 1.79-1.188 2.376-.426.587-.924 1.012-1.496 1.276-.558.264-1.225.396-2.002.396a5.44 5.44 0 01-1.584-.22 4.718 4.718 0 01-1.232-.528l.638-2.178c.278.22.572.374.88.462.308.103.66.154 1.056.154.41 0 .762-.088 1.056-.264.308-.176.564-.528.77-1.056l.374-.946-1.21-2.86-3.366-8.294h3.344l2.09 6.6.572 2.2.682-2.332 2.002-6.468h3.058zM140.539 44.298h7.656v2.442h-10.692V32.22h3.036v12.078zM155.231 35.52c1.115 0 2.09.227 2.926.682a4.801 4.801 0 011.98 1.958c.484.85.726 1.877.726 3.08 0 1.188-.242 2.215-.726 3.08a4.801 4.801 0 01-1.98 1.958c-.836.455-1.811.682-2.926.682-1.1 0-2.075-.227-2.926-.682a4.944 4.944 0 01-2.002-1.958c-.469-.865-.704-1.892-.704-3.08 0-1.203.235-2.23.704-3.08a4.944 4.944 0 012.002-1.958c.851-.455 1.826-.682 2.926-.682zm0 2.244c-.557 0-1.034.132-1.43.396-.381.25-.675.63-.88 1.144-.205.513-.308 1.159-.308 1.936 0 .777.103 1.423.308 1.936.205.513.499.902.88 1.166.396.25.873.374 1.43.374.543 0 1.005-.125 1.386-.374.396-.264.697-.653.902-1.166.205-.513.308-1.159.308-1.936 0-.777-.103-1.423-.308-1.936-.205-.513-.506-.895-.902-1.144-.381-.264-.843-.396-1.386-.396zM173.441 33.122l.352 2.156h-.198a.82.82 0 00-.198-.022c-.675 0-1.181.154-1.518.462-.337.293-.506.704-.506 1.232l-1.232-.506c0-.587.117-1.13.352-1.628a2.926 2.926 0 011.034-1.232c.469-.308 1.027-.462 1.672-.462h.242zm-3.608 11.55c1.188 0 2.105.257 2.75.77s.968 1.232.968 2.156c0 .836-.242 1.54-.726 2.112-.484.587-1.166 1.027-2.046 1.32-.865.293-1.87.44-3.014.44-1.892 0-3.278-.264-4.158-.792-.865-.528-1.298-1.217-1.298-2.068 0-.601.227-1.107.682-1.518.469-.41 1.239-.638 2.31-.682l-.11.352c-.763-.132-1.349-.381-1.76-.748-.396-.381-.594-.902-.594-1.562 0-.675.257-1.225.77-1.65.528-.44 1.239-.697 2.134-.77l1.32.616h-.308c-.631.044-1.078.176-1.342.396-.249.205-.374.44-.374.704 0 .308.117.543.352.704.249.147.601.22 1.056.22h3.388zm-2.046 4.73c.763 0 1.386-.066 1.87-.198.499-.132.865-.3 1.1-.506.249-.205.374-.433.374-.682a.834.834 0 00-.33-.682c-.22-.161-.616-.242-1.188-.242h-3.718c-.352 0-.645.088-.88.264-.22.176-.33.418-.33.726 0 .41.271.733.814.968.557.235 1.32.352 2.288.352zm.022-13.882c1.027 0 1.914.154 2.662.462.763.293 1.342.719 1.738 1.276.411.557.616 1.225.616 2.002 0 .763-.205 1.423-.616 1.98-.396.557-.975.99-1.738 1.298-.748.293-1.635.44-2.662.44-1.628 0-2.875-.33-3.74-.99-.851-.675-1.276-1.584-1.276-2.728 0-.777.198-1.445.594-2.002.411-.557.99-.983 1.738-1.276.748-.308 1.643-.462 2.684-.462zm0 1.892c-.587 0-1.071.161-1.452.484-.381.323-.572.77-.572 1.342 0 .572.191 1.027.572 1.364.381.323.865.484 1.452.484s1.063-.161 1.43-.484c.381-.337.572-.792.572-1.364 0-.572-.191-1.02-.572-1.342-.367-.323-.843-.484-1.43-.484zM180.389 35.52c1.115 0 2.09.227 2.926.682a4.801 4.801 0 011.98 1.958c.484.85.726 1.877.726 3.08 0 1.188-.242 2.215-.726 3.08a4.801 4.801 0 01-1.98 1.958c-.836.455-1.811.682-2.926.682-1.1 0-2.075-.227-2.926-.682a4.944 4.944 0 01-2.002-1.958c-.469-.865-.704-1.892-.704-3.08 0-1.203.235-2.23.704-3.08a4.944 4.944 0 012.002-1.958c.851-.455 1.826-.682 2.926-.682zm0 2.244c-.557 0-1.034.132-1.43.396-.381.25-.675.63-.88 1.144-.205.513-.308 1.159-.308 1.936 0 .777.103 1.423.308 1.936.205.513.499.902.88 1.166.396.25.873.374 1.43.374.543 0 1.005-.125 1.386-.374.396-.264.697-.653.902-1.166.205-.513.308-1.159.308-1.936 0-.777-.103-1.423-.308-1.936-.205-.513-.506-.895-.902-1.144-.381-.264-.843-.396-1.386-.396z"/></svg>