<svg xmlns="http://www.w3.org/2000/svg" xmlns:xlink="http://www.w3.org/1999/xlink" width="500" zoomAndPan="magnify" viewBox="0 0 375 374.999991" height="500" preserveAspectRatio="xMidYMid meet" version="1.0"><defs><g/></defs><g fill="#404040" fill-opacity="1"><g transform="translate(35.6926, 207.252163)"><g><path d="M 3.890625 0 L 3.890625 -40.0625 L 11.21875 -40.0625 L 11.21875 -23.40625 L 29.1875 -23.40625 L 29.1875 -40.0625 L 36.515625 -40.0625 L 36.515625 0 L 29.1875 0 L 29.1875 -17.453125 L 11.21875 -17.453125 L 11.21875 0 Z M 3.890625 0 "/></g></g></g><g fill="#404040" fill-opacity="1"><g transform="translate(82.390011, 207.252163)"><g><path d="M 7.671875 -32.796875 C 6.335938 -32.796875 5.238281 -33.195312 4.375 -34 C 3.519531 -34.800781 3.09375 -35.8125 3.09375 -37.03125 C 3.09375 -38.25 3.519531 -39.25 4.375 -40.03125 C 5.238281 -40.8125 6.335938 -41.203125 7.671875 -41.203125 C 9.003906 -41.203125 10.097656 -40.8125 10.953125 -40.03125 C 11.816406 -39.25 12.25 -38.25 12.25 -37.03125 C 12.25 -35.8125 11.816406 -34.800781 10.953125 -34 C 10.097656 -33.195312 9.003906 -32.796875 7.671875 -32.796875 Z M 4 0 L 4 -28.390625 L 11.328125 -28.390625 L 11.328125 0 Z M 4 0 "/></g></g></g><g fill="#404040" fill-opacity="1"><g transform="translate(103.964671, 207.252163)"><g><path d="M 15.734375 -8.46875 C 14.359375 -8.46875 13.082031 -8.617188 11.90625 -8.921875 L 9.78125 -6.8125 C 10.4375 -6.46875 11.316406 -6.179688 12.421875 -5.953125 C 13.523438 -5.722656 15.316406 -5.492188 17.796875 -5.265625 C 21.578125 -4.921875 24.320312 -4.023438 26.03125 -2.578125 C 27.75 -1.128906 28.609375 0.875 28.609375 3.4375 C 28.609375 5.113281 28.148438 6.703125 27.234375 8.203125 C 26.328125 9.710938 24.914062 10.9375 23 11.875 C 21.09375 12.8125 18.65625 13.28125 15.6875 13.28125 C 11.632812 13.28125 8.367188 12.523438 5.890625 11.015625 C 3.410156 9.503906 2.171875 7.242188 2.171875 4.234375 C 2.171875 1.679688 3.410156 -0.53125 5.890625 -2.40625 C 5.128906 -2.75 4.472656 -3.109375 3.921875 -3.484375 C 3.367188 -3.867188 2.882812 -4.269531 2.46875 -4.6875 L 2.46875 -6.015625 L 7.4375 -11.28125 C 5.226562 -13.21875 4.125 -15.710938 4.125 -18.765625 C 4.125 -20.679688 4.585938 -22.421875 5.515625 -23.984375 C 6.453125 -25.546875 7.78125 -26.785156 9.5 -27.703125 C 11.21875 -28.617188 13.296875 -29.078125 15.734375 -29.078125 C 17.335938 -29.078125 18.828125 -28.847656 20.203125 -28.390625 L 30.96875 -28.390625 L 30.96875 -23.921875 L 26.09375 -23.578125 C 26.863281 -22.128906 27.25 -20.523438 27.25 -18.765625 C 27.25 -16.859375 26.789062 -15.125 25.875 -13.5625 C 24.957031 -12 23.628906 -10.757812 21.890625 -9.84375 C 20.148438 -8.925781 18.097656 -8.46875 15.734375 -8.46875 Z M 15.734375 -14.078125 C 17.222656 -14.078125 18.453125 -14.476562 19.421875 -15.28125 C 20.398438 -16.082031 20.890625 -17.226562 20.890625 -18.71875 C 20.890625 -20.207031 20.398438 -21.351562 19.421875 -22.15625 C 18.453125 -22.957031 17.222656 -23.359375 15.734375 -23.359375 C 14.171875 -23.359375 12.910156 -22.957031 11.953125 -22.15625 C 11.003906 -21.351562 10.53125 -20.207031 10.53125 -18.71875 C 10.53125 -17.226562 11.003906 -16.082031 11.953125 -15.28125 C 12.910156 -14.476562 14.171875 -14.078125 15.734375 -14.078125 Z M 8.875 3.484375 C 8.875 4.898438 9.53125 5.960938 10.84375 6.671875 C 12.164062 7.378906 13.78125 7.734375 15.6875 7.734375 C 17.507812 7.734375 18.992188 7.359375 20.140625 6.609375 C 21.285156 5.867188 21.859375 4.867188 21.859375 3.609375 C 21.859375 2.578125 21.484375 1.71875 20.734375 1.03125 C 19.992188 0.34375 18.519531 -0.078125 16.3125 -0.234375 C 14.75 -0.347656 13.300781 -0.519531 11.96875 -0.75 C 10.851562 -0.132812 10.054688 0.53125 9.578125 1.25 C 9.109375 1.976562 8.875 2.722656 8.875 3.484375 Z M 8.875 3.484375 "/></g></g></g><g fill="#404040" fill-opacity="1"><g transform="translate(142.821951, 207.252163)"><g><path d="M 3.71875 0 L 3.71875 -41.203125 L 11.046875 -41.203125 L 11.046875 -24.03125 C 12.003906 -25.601562 13.289062 -26.835938 14.90625 -27.734375 C 16.53125 -28.628906 18.390625 -29.078125 20.484375 -29.078125 C 23.992188 -29.078125 26.710938 -27.96875 28.640625 -25.75 C 30.566406 -23.539062 31.53125 -20.300781 31.53125 -16.03125 L 31.53125 0 L 24.265625 0 L 24.265625 -15.34375 C 24.265625 -17.78125 23.773438 -19.644531 22.796875 -20.9375 C 21.828125 -22.238281 20.296875 -22.890625 18.203125 -22.890625 C 16.140625 -22.890625 14.429688 -22.164062 13.078125 -20.71875 C 11.722656 -19.269531 11.046875 -17.25 11.046875 -14.65625 L 11.046875 0 Z M 3.71875 0 "/></g></g></g><g fill="#404040" fill-opacity="1"><g transform="translate(183.911108, 207.252163)"><g><path d="M 3.890625 0 L 3.890625 -40.0625 L 19.96875 -40.0625 C 24.132812 -40.0625 27.3125 -39.097656 29.5 -37.171875 C 31.695312 -35.242188 32.796875 -32.773438 32.796875 -29.765625 C 32.796875 -27.242188 32.117188 -25.226562 30.765625 -23.71875 C 29.410156 -22.21875 27.757812 -21.195312 25.8125 -20.65625 C 28.101562 -20.195312 29.992188 -19.0625 31.484375 -17.25 C 32.972656 -15.4375 33.71875 -13.332031 33.71875 -10.9375 C 33.71875 -7.769531 32.570312 -5.15625 30.28125 -3.09375 C 27.988281 -1.03125 24.742188 0 20.546875 0 Z M 11.21875 -23.234375 L 18.890625 -23.234375 C 20.953125 -23.234375 22.535156 -23.707031 23.640625 -24.65625 C 24.742188 -25.613281 25.296875 -26.972656 25.296875 -28.734375 C 25.296875 -30.410156 24.75 -31.734375 23.65625 -32.703125 C 22.570312 -33.679688 20.941406 -34.171875 18.765625 -34.171875 L 11.21875 -34.171875 Z M 11.21875 -5.953125 L 19.40625 -5.953125 C 21.582031 -5.953125 23.269531 -6.457031 24.46875 -7.46875 C 25.664062 -8.476562 26.265625 -9.898438 26.265625 -11.734375 C 26.265625 -13.597656 25.632812 -15.066406 24.375 -16.140625 C 23.125 -17.210938 21.425781 -17.75 19.28125 -17.75 L 11.21875 -17.75 Z M 11.21875 -5.953125 "/></g></g></g><g fill="#404040" fill-opacity="1"><g transform="translate(226.316484, 207.252163)"><g><path d="M 7.265625 12.59375 L 13.84375 -1.890625 L 12.140625 -1.890625 L 1.09375 -28.390625 L 9.046875 -28.390625 L 17 -8.40625 L 25.296875 -28.390625 L 33.078125 -28.390625 L 15.046875 12.59375 Z M 7.265625 12.59375 "/></g></g></g><g fill="#404040" fill-opacity="1"><g transform="translate(266.776128, 207.252163)"><g><path d="M 16.375 0 C 13.394531 0 11.007812 -0.722656 9.21875 -2.171875 C 7.425781 -3.617188 6.53125 -6.195312 6.53125 -9.90625 L 6.53125 -22.265625 L 1.65625 -22.265625 L 1.65625 -28.390625 L 6.53125 -28.390625 L 7.390625 -36 L 13.84375 -36 L 13.84375 -28.390625 L 21.515625 -28.390625 L 21.515625 -22.265625 L 13.84375 -22.265625 L 13.84375 -9.84375 C 13.84375 -8.46875 14.140625 -7.519531 14.734375 -7 C 15.328125 -6.488281 16.347656 -6.234375 17.796875 -6.234375 L 21.34375 -6.234375 L 21.34375 0 Z M 16.375 0 "/></g></g></g><g fill="#404040" fill-opacity="1"><g transform="translate(297.163793, 207.252163)"><g><path d="M 17.515625 0.6875 C 14.648438 0.6875 12.109375 0.078125 9.890625 -1.140625 C 7.679688 -2.359375 5.945312 -4.070312 4.6875 -6.28125 C 3.425781 -8.5 2.796875 -11.0625 2.796875 -13.96875 C 2.796875 -16.90625 3.414062 -19.515625 4.65625 -21.796875 C 5.90625 -24.085938 7.625 -25.875 9.8125 -27.15625 C 12.007812 -28.4375 14.597656 -29.078125 17.578125 -29.078125 C 20.359375 -29.078125 22.816406 -28.460938 24.953125 -27.234375 C 27.085938 -26.015625 28.753906 -24.347656 29.953125 -22.234375 C 31.160156 -20.117188 31.765625 -17.765625 31.765625 -15.171875 C 31.765625 -14.742188 31.753906 -14.300781 31.734375 -13.84375 C 31.710938 -13.382812 31.6875 -12.910156 31.65625 -12.421875 L 10.078125 -12.421875 C 10.222656 -10.203125 10.992188 -8.460938 12.390625 -7.203125 C 13.785156 -5.953125 15.472656 -5.328125 17.453125 -5.328125 C 18.941406 -5.328125 20.191406 -5.660156 21.203125 -6.328125 C 22.210938 -6.992188 22.96875 -7.859375 23.46875 -8.921875 L 30.90625 -8.921875 C 30.375 -7.128906 29.488281 -5.5 28.25 -4.03125 C 27.007812 -2.5625 25.484375 -1.40625 23.671875 -0.5625 C 21.859375 0.269531 19.804688 0.6875 17.515625 0.6875 Z M 17.578125 -23.125 C 15.773438 -23.125 14.1875 -22.617188 12.8125 -21.609375 C 11.445312 -20.597656 10.570312 -19.0625 10.1875 -17 L 24.328125 -17 C 24.210938 -18.863281 23.523438 -20.347656 22.265625 -21.453125 C 21.003906 -22.566406 19.441406 -23.125 17.578125 -23.125 Z M 17.578125 -23.125 "/></g></g></g><path stroke-linecap="butt" transform="matrix(-1.021915, 0, 0, -1.021915, 374.503163, 154.889579)" fill="none" stroke-linejoin="miter" d="M -0.000727206 4.998782 L 84.434062 4.998782 " stroke="#404040" stroke-width="10" stroke-opacity="1" stroke-miterlimit="4"/><path stroke-linecap="butt" transform="matrix(0, -1.021915, 1.021915, 0, 364.289277, 232.001483)" fill="none" stroke-linejoin="miter" d="M 0.00145136 4.999595 L 82.46384 4.999595 " stroke="#404040" stroke-width="10" stroke-opacity="1" stroke-miterlimit="4"/><path stroke-linecap="butt" transform="matrix(1.021915, 0, 0, 1.021915, 0.131102, 221.795729)" fill="none" stroke-linejoin="miter" d="M 0.00167367 5.000927 L 84.43264 5.000927 " stroke="#404040" stroke-width="10" stroke-opacity="1" stroke-miterlimit="4"/><path stroke-linecap="butt" transform="matrix(0, 1.021915, -1.021915, 0, 10.345011, 144.683839)" fill="none" stroke-linejoin="miter" d="M -0.000240283 5.001039 L 82.462148 5.001039 " stroke="#404040" stroke-width="10" stroke-opacity="1" stroke-miterlimit="4"/></svg>