<svg width="374" height="100" xmlns="http://www.w3.org/2000/svg" preserveAspectRatio="xMidYMid meet">
 <defs>
  <g id="svg_1"/>
 </defs>
 <g>
  <title>background</title>
  <rect fill="none" id="canvas_background" height="100.99999" width="376" y="-1" x="-1"/>
 </g>
 <g>
  <title>Layer 1</title>
  <g id="svg_2" fill="#404040">
   <g id="svg_3">
    <g id="svg_4">
     <path id="svg_5" d="m39.58323,69.578644l0,-40.0625l7.32812,0l0,16.65625l17.96875,0l0,-16.65625l7.32813,0l0,40.0625l-7.32813,0l0,-17.45313l-17.96875,0l0,17.45313l-7.32812,0zm0,0"/>
    </g>
   </g>
  </g>
  <g id="svg_6" fill="#404040">
   <g id="svg_7">
    <g id="svg_8">
     <path id="svg_9" d="m90.061895,36.781764c-1.33594,0 -2.4336,-0.39843 -3.29688,-1.20312c-0.85547,-0.80078 -1.28125,-1.8125 -1.28125,-3.03125c0,-1.21875 0.42578,-2.21875 1.28125,-3c0.86328,-0.78125 1.96094,-1.17188 3.29688,-1.17188c1.33203,0 2.42578,0.39063 3.28125,1.17188c0.86328,0.78125 1.29687,1.78125 1.29687,3c0,1.21875 -0.43359,2.23047 -1.29687,3.03125c-0.85547,0.80469 -1.94922,1.20312 -3.28125,1.20312zm-3.67188,32.79688l0,-28.39063l7.32813,0l0,28.39063l-7.32813,0zm0,0"/>
    </g>
   </g>
  </g>
  <g id="svg_10" fill="#404040">
   <g id="svg_11">
    <g id="svg_12">
     <path id="svg_13" d="m119.699048,61.109894c-1.375,0 -2.65235,-0.14844 -3.82813,-0.45313l-2.125,2.10938c0.65625,0.34375 1.53516,0.63281 2.64063,0.85937c1.10156,0.23047 2.89453,0.46094 5.375,0.6875c3.78125,0.34375 6.52343,1.24219 8.23437,2.6875c1.71875,1.44922 2.57813,3.45313 2.57813,6.01563c0,1.67578 -0.46094,3.26563 -1.375,4.76563c-0.90625,1.50781 -2.32032,2.73437 -4.23438,3.67187c-1.90625,0.9375 -4.34375,1.40625 -7.3125,1.40625c-4.05469,0 -7.32031,-0.75781 -9.79687,-2.26562c-2.48047,-1.51172 -3.71875,-3.77344 -3.71875,-6.78125c0,-2.55469 1.23828,-4.76563 3.71875,-6.64063c-0.76172,-0.34375 -1.41797,-0.70313 -1.96875,-1.07813c-0.55469,-0.38281 -1.03907,-0.78515 -1.45313,-1.20312l0,-1.32813l4.96875,-5.26562c-2.21094,-1.9375 -3.3125,-4.42969 -3.3125,-7.48438c0,-1.91406 0.46094,-3.65625 1.39063,-5.21875c0.9375,-1.5625 2.26562,-2.80078 3.98437,-3.71875c1.71875,-0.91406 3.79688,-1.375 6.23438,-1.375c1.60156,0 3.09375,0.23047 4.46875,0.6875l10.76562,0l0,4.46875l-4.875,0.34375c0.76953,1.44922 1.15625,3.05469 1.15625,4.8125c0,1.90625 -0.46094,3.64063 -1.375,5.20313c-0.91797,1.5625 -2.24609,2.80469 -3.98437,3.71875c-1.74219,0.91797 -3.79297,1.375 -6.15625,1.375zm0,-5.60938c1.48828,0 2.71875,-0.39843 3.6875,-1.20312c0.97656,-0.80078 1.46875,-1.94531 1.46875,-3.4375c0,-1.48828 -0.49219,-2.63281 -1.46875,-3.4375c-0.96875,-0.80078 -2.19922,-1.20313 -3.6875,-1.20313c-1.5625,0 -2.82422,0.40235 -3.78125,1.20313c-0.94922,0.80469 -1.42188,1.94922 -1.42188,3.4375c0,1.49219 0.47266,2.63672 1.42188,3.4375c0.95703,0.80469 2.21875,1.20312 3.78125,1.20312zm-6.85938,17.56251c0,1.41406 0.65625,2.47656 1.96875,3.1875c1.32031,0.70703 2.9375,1.0625 4.84375,1.0625c1.82031,0 3.30469,-0.375 4.45313,-1.125c1.14453,-0.74219 1.71875,-1.74219 1.71875,-3c0,-1.03125 -0.375,-1.89063 -1.125,-2.57813c-0.74219,-0.6875 -2.21485,-1.10938 -4.42188,-1.26563c-1.5625,-0.11328 -3.01172,-0.28515 -4.34375,-0.51562c-1.11719,0.61719 -1.91406,1.28125 -2.39062,2c-0.46875,0.72656 -0.70313,1.47266 -0.70313,2.23438zm0,0"/>
    </g>
   </g>
  </g>
  <g id="svg_14" fill="#404040">
   <g id="svg_15">
    <g id="svg_16">
     <path id="svg_17" d="m146.540695,69.578644l0,-41.20313l7.32813,0l0,17.17188c0.95703,-1.57031 2.24218,-2.80469 3.85937,-3.70313c1.625,-0.89453 3.48438,-1.34375 5.57813,-1.34375c3.50781,0 6.22656,1.10938 8.15625,3.32813c1.92578,2.21094 2.89062,5.44922 2.89062,9.71875l0,16.03125l-7.26562,0l0,-15.34375c0,-2.4375 -0.49219,-4.30078 -1.46875,-5.59375c-0.96875,-1.30078 -2.5,-1.95313 -4.59375,-1.95313c-2.0625,0 -3.77344,0.72657 -5.125,2.17188c-1.35547,1.44922 -2.03125,3.46875 -2.03125,6.0625l0,14.65625l-7.32813,0zm0,0"/>
    </g>
   </g>
  </g>
  <g id="svg_18" fill="#404040">
   <g id="svg_19">
    <g id="svg_20">
     <path id="svg_21" d="m187.801732,69.578644l0,-40.0625l16.07812,0c4.16406,0 7.34375,0.96484 9.53125,2.89062c2.19531,1.92969 3.29688,4.39844 3.29688,7.40625c0,2.52344 -0.67969,4.53907 -2.03125,6.04688c-1.35547,1.5 -3.00782,2.52344 -4.95313,3.0625c2.28906,0.46094 4.17969,1.59375 5.67188,3.40625c1.48828,1.8125 2.23437,3.91797 2.23437,6.3125c0,3.16797 -1.14844,5.78125 -3.4375,7.84375c-2.29297,2.0625 -5.53906,3.09375 -9.73437,3.09375l-16.65625,0zm7.32812,-23.23438l7.67188,0c2.0625,0 3.64453,-0.47265 4.75,-1.42187c1.10156,-0.95703 1.65625,-2.31641 1.65625,-4.07813c0,-1.67578 -0.54688,-3 -1.64063,-3.96875c-1.08594,-0.97656 -2.71484,-1.46875 -4.89062,-1.46875l-7.54688,0l0,10.9375zm0,17.28125l8.1875,0c2.17578,0 3.86328,-0.5039 5.0625,-1.51562c1.19531,-1.00781 1.79688,-2.42969 1.79688,-4.26563c0,-1.86328 -0.63282,-3.33203 -1.89063,-4.40625c-1.25,-1.07031 -2.94922,-1.60937 -5.09375,-1.60937l-8.0625,0l0,11.79687zm0,0"/>
    </g>
   </g>
  </g>
  <g id="svg_22" fill="#404040">
   <g id="svg_23">
    <g id="svg_24">
     <path id="svg_25" d="m233.582113,82.172394l6.57812,-14.48438l-1.70312,0l-11.04688,-26.5l7.95313,0l7.95312,19.98438l8.29688,-19.98438l7.78125,0l-18.03125,40.98438l-7.78125,0zm0,0"/>
    </g>
   </g>
  </g>
  <g id="svg_26" fill="#404040">
   <g id="svg_27">
    <g id="svg_28">
     <path id="svg_29" d="m283.151123,69.578644c-2.98047,0 -5.36719,-0.72266 -7.15625,-2.17188c-1.79297,-1.44531 -2.6875,-4.02343 -2.6875,-7.73437l0,-12.35938l-4.875,0l0,-6.125l4.875,0l0.85938,-7.60937l6.45312,0l0,7.60937l7.67188,0l0,6.125l-7.67188,0l0,12.42188c0,1.375 0.29688,2.32422 0.89063,2.84375c0.59375,0.51172 1.61328,0.76562 3.0625,0.76562l3.54687,0l0,6.23438l-4.96875,0zm0,0"/>
    </g>
   </g>
  </g>
  <g id="svg_30" fill="#404040">
   <g id="svg_31">
    <g id="svg_32">
     <path id="svg_33" d="m314.679418,70.266144c-2.86719,0 -5.40625,-0.60937 -7.625,-1.82813c-2.21094,-1.21875 -3.94532,-2.92968 -5.20313,-5.14062c-1.26172,-2.21875 -1.89062,-4.78125 -1.89062,-7.6875c0,-2.9375 0.61718,-5.54688 1.85937,-7.82813c1.25,-2.28906 2.96875,-4.07812 5.15625,-5.35937c2.19531,-1.28125 4.78516,-1.92188 7.76563,-1.92188c2.78125,0 5.23828,0.61719 7.375,1.84375c2.13281,1.21875 3.80078,2.88672 5,5c1.20703,2.11719 1.8125,4.46875 1.8125,7.0625c0,0.42969 -0.01172,0.8711 -0.03125,1.32813c-0.02344,0.46094 -0.04688,0.93359 -0.07813,1.42187l-21.57812,0c0.14453,2.21875 0.91406,3.96094 2.3125,5.21875c1.39453,1.25 3.08203,1.875 5.0625,1.875c1.48828,0 2.73828,-0.33203 3.75,-1c1.00781,-0.66406 1.76562,-1.53125 2.26562,-2.59375l7.4375,0c-0.53125,1.79297 -1.41797,3.42188 -2.65625,4.89063c-1.24219,1.46875 -2.76562,2.625 -4.57812,3.46875c-1.8125,0.83203 -3.86719,1.25 -6.15625,1.25zm0.0625,-23.8125c-1.80469,0 -3.39063,0.50781 -4.76563,1.51562c-1.36719,1.01172 -2.24219,2.54688 -2.625,4.60938l14.14063,0c-0.11719,-1.86328 -0.80469,-3.34766 -2.0625,-4.45313c-1.26172,-1.11328 -2.82422,-1.67187 -4.6875,-1.67187zm0,0"/>
    </g>
   </g>
  </g>
  <path id="svg_34" stroke-miterlimit="4" stroke-width="10" stroke="#404040" d="m374.503909,12.107728l-86.285178,0" fill="none"/>
  <path id="svg_35" stroke-miterlimit="4" stroke-width="10" stroke="#404040" d="m369.398443,94.326478l0,-84.269553" fill="none"/>
  <path id="svg_36" stroke-miterlimit="4" stroke-width="10" stroke="#404040" d="m0.154737,86.309481l86.281275,0" fill="none"/>
  <path id="svg_37" stroke-miterlimit="4" stroke-width="10" stroke="#404040" d="m4.856302,7.010071l0,84.269553" fill="none"/>
 </g>
</svg>